<?xml version="1.0" standalone="no"?>
<!DOCTYPE svg PUBLIC "-//W3C//DTD SVG 20010904//EN"
 "http://www.w3.org/TR/2001/REC-SVG-20010904/DTD/svg10.dtd">
<svg version="1.0" xmlns="http://www.w3.org/2000/svg"
 width="344.000000pt" height="307.000000pt" viewBox="0 0 344.000000 307.000000"
 preserveAspectRatio="xMidYMid meet">

<g transform="translate(0.000000,307.000000) scale(0.100000,-0.100000)"
fill="#000000" stroke="none">
<path d="M0 1535 l0 -1535 1720 0 1720 0 0 1199 c0 942 -3 1200 -13 1204 -9 4
-9 7 1 18 9 10 12 90 12 331 l0 318 -1720 0 -1720 0 0 -1535z m1950 1394 c356
-44 688 -229 923 -514 38 -47 108 -158 102 -163 -3 -3 -156 -5 -340 -4 -301 1
-336 -1 -354 -16 -11 -9 -63 -80 -117 -157 -355 -509 -392 -561 -398 -554 -5
6 -354 503 -435 619 -36 52 -70 98 -76 102 -12 9 -118 8 -158 -1 l-28 -6 1
-505 c1 -473 2 -506 19 -525 29 -32 32 -54 15 -92 -41 -85 -164 -64 -164 27 0
22 8 48 20 63 19 24 20 43 22 573 l3 549 158 3 c87 1 164 -1 172 -5 12 -7 64
-78 247 -338 27 -38 87 -123 133 -188 l83 -117 50 67 c27 38 73 102 101 143
29 41 79 113 112 160 33 47 79 112 101 145 23 33 55 77 71 98 l29 38 255 -2
c140 0 257 1 260 4 2 3 -35 45 -84 94 -96 97 -129 126 -188 166 l-40 27 30 0
c23 0 27 -3 15 -10 -12 -8 -10 -10 8 -10 27 0 25 23 -3 28 -10 2 -29 16 -44
30 -27 28 -128 80 -241 126 -152 61 -413 91 -587 68 -431 -58 -785 -301 -997
-684 -87 -157 -137 -341 -150 -558 -6 -81 8 -234 14 -165 2 17 6 1 10 -35 14
-131 29 -179 60 -195 16 -8 31 -23 34 -33 8 -23 -28 -98 -53 -112 -74 -39
-160 38 -122 109 6 11 6 32 1 57 -38 158 -43 388 -14 544 57 310 172 530 388
746 118 118 197 178 314 241 39 22 69 43 65 48 -5 4 -3 5 3 2 13 -8 114 31
114 44 0 4 8 7 18 7 9 -1 51 8 92 19 64 18 135 32 240 47 56 8 231 5 310 -5z
m687 -191 c-3 -8 -6 -5 -6 6 -1 11 2 17 5 13 3 -3 4 -12 1 -19z m-268 -62 c10
-12 8 -13 -8 -9 -12 3 -18 9 -15 14 7 12 10 11 23 -5z m81 -37 c0 -11 -27 -12
-34 -1 -2 4 4 9 15 9 10 1 19 -2 19 -8z m792 -207 c-3 -9 -1 -13 5 -9 7 5 9
-1 5 -15 -4 -16 -7 -18 -10 -8 -3 8 -8 22 -13 31 -5 10 -3 16 6 16 7 0 11 -7
7 -15z m-1582 -222 c0 -5 -5 -10 -11 -10 -5 0 -7 5 -4 10 3 6 8 10 11 10 2 0
4 -4 4 -10z m1398 -64 c41 -21 59 -60 45 -96 -9 -24 -7 -42 8 -92 44 -148 54
-218 54 -403 0 -152 -4 -196 -24 -285 -83 -376 -293 -679 -614 -888 -186 -121
-382 -190 -607 -213 -167 -16 -370 -2 -500 37 -244 73 -403 160 -575 316 -80
72 -215 227 -215 246 0 19 36 22 306 22 l274 0 0 629 c0 381 4 632 9 636 6 3
17 -5 26 -17 76 -104 490 -689 503 -710 9 -16 19 -28 23 -28 6 0 103 131 178
240 117 169 376 520 385 520 8 0 10 -168 8 -595 l-3 -595 61 0 60 0 0 550 c0
544 0 551 -21 579 -61 83 82 200 158 129 29 -27 30 -76 3 -111 -19 -25 -20
-40 -20 -625 0 -446 -3 -603 -12 -608 -16 -10 -299 -12 -320 -2 -16 8 -18 42
-17 478 0 258 4 483 9 500 5 16 7 30 5 30 -3 0 -308 -421 -371 -512 -42 -62
-47 -65 -111 -73 -45 -6 -42 -9 -143 139 -16 23 -110 156 -242 340 l-78 108
-2 -548 -3 -549 -239 -3 -239 -2 68 -65 c178 -167 384 -276 630 -332 120 -27
407 -24 526 5 511 126 865 491 976 1005 14 62 18 124 17 252 -1 156 -4 180
-32 285 -25 97 -28 117 -16 126 7 6 11 14 7 17 -11 12 -41 8 -46 -5 -3 -10 -8
-10 -21 2 -24 19 -37 56 -30 83 6 24 77 82 109 90 11 2 21 5 23 6 2 0 15 -5
30 -13z m183 -263 c13 -15 12 -15 -8 -4 -24 12 -29 21 -14 21 5 0 15 -7 22
-17z m-2376 -243 c-3 -5 -11 -10 -16 -10 -6 0 -7 5 -4 10 3 6 11 10 16 10 6 0
7 -4 4 -10z m1895 -147 c0 -18 -10 -16 -26 5 -20 25 -17 34 6 20 11 -7 20 -18
20 -25z m554 -92 c-2 -3 -12 3 -22 13 -16 17 -16 18 5 5 12 -7 20 -15 17 -18z
m56 -131 c0 -5 -4 -10 -10 -10 -5 0 -10 5 -10 10 0 6 5 10 10 10 6 0 10 -4 10
-10z m-585 -99 c-3 -6 -11 -8 -17 -5 -6 4 -5 9 3 15 16 10 23 4 14 -10z
m-1955 -105 c0 -3 -4 -8 -10 -11 -5 -3 -10 -1 -10 4 0 6 5 11 10 11 6 0 10 -2
10 -4z"/>
<path d="M1305 2800 c-3 -5 -1 -10 4 -10 6 0 11 5 11 10 0 6 -2 10 -4 10 -3 0
-8 -4 -11 -10z"/>
<path d="M2560 2556 c0 -2 7 -6 15 -10 8 -3 15 -1 15 4 0 6 -7 10 -15 10 -8 0
-15 -2 -15 -4z"/>
</g>
</svg>
